<svg xmlns="http://www.w3.org/2000/svg" version="1.1" xmlns:xlink="http://www.w3.org/1999/xlink" xmlns:svgjs="http://svgjs.dev/svgjs" width="1500" height="1500" viewBox="0 0 1500 1500"><g transform="matrix(1,0,0,1,-0.323615160350073,-0.3236151603499593)"><svg viewBox="0 0 343 343" data-background-color="#ffffff" preserveAspectRatio="xMidYMid meet" height="1500" width="1500" xmlns="http://www.w3.org/2000/svg" xmlns:xlink="http://www.w3.org/1999/xlink"><g id="tight-bounds" transform="matrix(1,0,0,1,0.0740000000000407,0.07400000000001228)"><svg viewBox="0 0 342.85155851775386 342.85155851775386" height="342.85155851775386" width="342.85155851775386"><g><svg></svg></g><g><svg viewBox="0 0 342.85155851775386 342.85155851775386" height="342.85155851775386" width="342.85155851775386"><g><path d="M0 171.426c0-94.676 76.75-171.426 171.426-171.426 94.676 0 171.426 76.75 171.426 171.426 0 94.676-76.75 171.426-171.426 171.426-94.676 0-171.426-76.75-171.426-171.426zM171.426 339.403c92.771 0 167.977-75.206 167.977-167.977 0-92.771-75.206-167.977-167.977-167.978-92.771 0-167.977 75.206-167.978 167.978 0 92.771 75.206 167.977 167.978 167.977z" data-fill-palette-color="tertiary" fill="#d69723" stroke="transparent"></path><ellipse rx="164.56874808852186" ry="164.56874808852186" cx="171.42577925887693" cy="171.42577925887693" fill="#d69723" stroke="transparent" stroke-width="0" fill-opacity="1" data-fill-palette-color="tertiary"></ellipse></g><g transform="matrix(1,0,0,1,64.84655864529837,121.37157027226057)"><svg viewBox="0 0 213.1584412271571 100.10841797323272" height="100.10841797323272" width="213.1584412271571"><g><svg viewBox="0 0 213.1584412271571 100.10841797323272" height="100.10841797323272" width="213.1584412271571"><g><svg viewBox="0 0 213.1584412271571 100.10841797323272" height="100.10841797323272" width="213.1584412271571"><g transform="matrix(1,0,0,1,0,61.871018458003704)"><svg viewBox="0 0 213.1584412271571 38.237399515229015" height="38.237399515229015" width="213.1584412271571"><g id="textblocktransform"><svg viewBox="0 0 213.1584412271571 38.237399515229015" height="38.237399515229015" width="213.1584412271571" id="textblock"><g><svg viewBox="0 0 213.1584412271571 38.237399515229015" height="38.237399515229015" width="213.1584412271571"><g transform="matrix(1,0,0,1,0,0)"><svg width="213.1584412271571" viewBox="-4.55 -40.8 300.73 53.949999999999996" height="38.237399515229015" data-palette-color="#ffffff"><path d="M11.75-31.65L11.75-31.65 11.75-5.4Q11.75 1.55 9 5.75 6.25 9.95 2.15 9.95L2.15 9.95Q-1.35 9.95-2.93 8.63-4.5 7.3-4.55 4.15L-4.55 4.15Q-4.2 2.8-1.85 2.8L-1.85 2.8Q-0.75 2.8 0.6 3.1L0.6 3.1Q0.85 6 1.23 6.95 1.6 7.9 2.6 7.9L2.6 7.9Q4.8 7.9 5.6 5.03 6.4 2.15 6.4-4L6.4-4 6.4-37.6 1.85-38.1Q1.65-38.85 1.85-39.95L1.85-39.95Q4.6-39.8 8.05-39.8L8.05-39.8Q12.5-39.8 16.1-39.95L16.1-39.95Q16.4-39.05 16.1-38.15L16.1-38.15 11.95-37.5Q11.75-35.6 11.75-31.65ZM19.15-13.3L19.15-13.3Q19.15-16.3 20.02-18.93 20.9-21.55 22.55-23.5 24.2-25.45 26.52-26.58 28.85-27.7 31.75-27.7L31.75-27.7Q34.6-27.7 36.95-26.58 39.3-25.45 40.97-23.5 42.65-21.55 43.55-18.93 44.45-16.3 44.45-13.3L44.45-13.3Q44.45-10.2 43.52-7.6 42.6-5 40.92-3.08 39.25-1.15 36.9-0.08 34.55 1 31.75 1L31.75 1Q28.8 1 26.47-0.05 24.15-1.1 22.52-3 20.9-4.9 20.02-7.53 19.15-10.15 19.15-13.3ZM26.45-22.5L26.45-22.5Q24.3-19.45 24.3-13.3L24.3-13.3Q24.3-10.25 24.87-7.95 25.45-5.65 26.45-4.13 27.45-2.6 28.8-1.85 30.15-1.1 31.75-1.1L31.75-1.1Q33.3-1.1 34.7-1.85 36.1-2.6 37.1-4.13 38.1-5.65 38.7-7.95 39.3-10.25 39.3-13.3L39.3-13.3Q39.3-16.35 38.7-18.68 38.1-21 37.07-22.53 36.05-24.05 34.67-24.83 33.3-25.6 31.75-25.6L31.75-25.6Q28.65-25.6 26.45-22.5ZM55.2-31.7L55.2-23.55Q59.34-27.7 64.25-27.7L64.25-27.7Q69.09-27.7 71.82-24.05 74.55-20.4 74.55-14.2L74.55-14.2Q74.55-7.15 70.75-3.08 66.94 1 61.3 1L61.3 1Q56.39 1 53.59-2.5L53.59-2.5 52.55 0.9Q51.59 1.05 50.95 0.9L50.95 0.9 50.45-4.6 50.45-37.35 46.34-37.85Q46.14-38.6 46.34-39.75L46.34-39.75Q49.8-40 54.95-40.8L54.95-40.8Q55.39-40.3 55.45-39.8L55.45-39.8Q55.2-38.5 55.2-31.7L55.2-31.7ZM62.39-1.75L62.39-1.75Q65.5-1.75 67.52-4.63 69.55-7.5 69.55-12.75L69.55-12.75Q69.55-13.8 69.5-14.35L69.5-14.35Q69.5-19.3 67.52-22 65.55-24.7 62.55-24.7L62.55-24.7Q60.8-24.7 58.74-23.58 56.7-22.45 55.2-20.5L55.2-20.5 55.2-5.2Q56.89-3.25 58.45-2.5 59.99-1.75 62.39-1.75ZM127.64-8.7L127.64-17.85Q127.64-24.8 123.19-24.8L123.19-24.8Q119.39-24.8 115.99-19.55L115.99-19.55 115.99-2.55 120.04-1.8Q120.24-1 120.04 0.2L120.04 0.2Q116.89 0.05 113.64 0.05L113.64 0.05Q111.34 0.05 107.14 0.15L107.14 0.15Q106.84-0.8 107.14-1.8L107.14-1.8 111.09-2.35Q111.29-5.1 111.29-8.7L111.29-8.7 111.29-17.85Q111.29-24.8 106.84-24.8L106.84-24.8Q104.59-24.8 102.89-23.43 101.19-22.05 99.39-19.15L99.39-19.15 99.39-2.55 103.44-1.8Q103.64-1 103.44 0.2L103.44 0.2Q100.29 0.05 97.04 0.05L97.04 0.05Q94.74 0.05 90.54 0.15L90.54 0.15Q90.24-0.8 90.54-1.8L90.54-1.8 94.49-2.35Q94.69-5.1 94.69-8.7L94.69-8.7 94.69-22.4Q94.69-23.4 94.54-24.25L94.54-24.25 90.59-24.75Q90.39-25.5 90.59-26.65L90.59-26.65Q93.94-26.9 99.14-27.7L99.14-27.7Q99.59-27.2 99.64-26.7L99.64-26.7Q99.39-25.4 99.39-22.25L99.39-22.25Q103.34-27.7 108.29-27.7L108.29-27.7Q110.89-27.7 113.04-26.38 115.19-25.05 115.79-22.3L115.79-22.3Q119.79-27.7 124.64-27.7L124.64-27.7Q127.69-27.7 130.02-25.9 132.34-24.1 132.34-20.35L132.34-20.35 132.34-2.55 136.39-1.8Q136.59-1 136.39 0.2L136.39 0.2Q133.24 0.05 129.99 0.05L129.99 0.05Q127.69 0.05 123.49 0.15L123.49 0.15Q123.19-0.8 123.49-1.8L123.49-1.8 127.44-2.35Q127.64-5.1 127.64-8.7L127.64-8.7ZM143.84-6.65L143.84-6.65Q143.84-4.05 144.79-2.98 145.74-1.9 147.79-1.9L147.79-1.9Q149.29-1.9 151.11-2.83 152.94-3.75 154.49-5.5L154.49-5.5 154.49-13.3Q149.34-13 146.59-11.48 143.84-9.95 143.84-6.65ZM154.49-15.1L154.49-15.1 154.49-17.65Q154.49-21.9 153.51-23.83 152.54-25.75 150.29-25.75L150.29-25.75Q147.99-25.75 146.59-24.28 145.19-22.8 144.69-19.25L144.69-19.25Q143.09-18.9 142.34-18.9L142.34-18.9Q140.39-18.9 140.04-20.3L140.04-20.3Q140.04-23.7 142.99-25.7 145.94-27.7 150.34-27.7L150.34-27.7Q155.19-27.7 157.21-25.73 159.24-23.75 159.24-18.65L159.24-18.65 159.24-4.55Q159.24-3.3 159.39-2.4L159.39-2.4 163.34-1.9Q163.54-1.15 163.34 0L163.34 0Q159.79 0.15 155.79 0.7L155.79 0.7Q155.39 0.3 155.29-0.3L155.29-0.3 155.04-3.75Q150.89 1 145.79 1L145.79 1Q142.64 1 140.86-0.8 139.09-2.6 139.09-5.65L139.09-5.65Q139.09-10.25 143.26-12.6 147.44-14.95 154.49-15.1ZM186.09-8.7L186.09-17.85Q186.09-21.7 185.06-23.25 184.04-24.8 181.64-24.8L181.64-24.8Q177.94-24.8 174.19-19.25L174.19-19.25 174.19-2.55 178.24-1.8Q178.44-1 178.24 0.2L178.24 0.2Q175.09 0.05 171.79 0.05L171.79 0.05Q169.49 0.05 165.29 0.15L165.29 0.15Q164.99-0.8 165.29-1.8L165.29-1.8 169.24-2.35Q169.44-5.1 169.44-8.7L169.44-8.7 169.44-22.4Q169.44-23.4 169.29-24.25L169.29-24.25 165.34-24.75Q165.14-25.5 165.34-26.65L165.34-26.65Q168.79-26.9 173.94-27.7L173.94-27.7Q174.39-27.2 174.44-26.7L174.44-26.7Q174.19-25.4 174.19-22.25L174.19-22.25Q178.14-27.7 183.09-27.7L183.09-27.7Q190.84-27.7 190.84-20.35L190.84-20.35 190.84-2.55 194.89-1.8Q195.09-1 194.89 0.2L194.89 0.2Q191.74 0.05 188.44 0.05L188.44 0.05Q186.14 0.05 181.94 0.15L181.94 0.15Q181.64-0.8 181.94-1.8L181.94-1.8 185.89-2.35Q186.09-5.1 186.09-8.7L186.09-8.7ZM202.38-6.65L202.38-6.65Q202.38-4.05 203.33-2.98 204.28-1.9 206.33-1.9L206.33-1.9Q207.83-1.9 209.66-2.83 211.48-3.75 213.03-5.5L213.03-5.5 213.03-13.3Q207.88-13 205.13-11.48 202.38-9.95 202.38-6.65ZM213.03-15.1L213.03-15.1 213.03-17.65Q213.03-21.9 212.06-23.83 211.08-25.75 208.83-25.75L208.83-25.75Q206.53-25.75 205.13-24.28 203.73-22.8 203.23-19.25L203.23-19.25Q201.63-18.9 200.88-18.9L200.88-18.9Q198.93-18.9 198.58-20.3L198.58-20.3Q198.58-23.7 201.53-25.7 204.48-27.7 208.88-27.7L208.88-27.7Q213.73-27.7 215.76-25.73 217.78-23.75 217.78-18.65L217.78-18.65 217.78-4.55Q217.78-3.3 217.93-2.4L217.93-2.4 221.88-1.9Q222.08-1.15 221.88 0L221.88 0Q218.33 0.15 214.33 0.7L214.33 0.7Q213.93 0.3 213.83-0.3L213.83-0.3 213.58-3.75Q209.43 1 204.33 1L204.33 1Q201.18 1 199.41-0.8 197.63-2.6 197.63-5.65L197.63-5.65Q197.63-10.25 201.81-12.6 205.98-14.95 213.03-15.1ZM228.33 0.55L228.33 0.55Q228.78 0.75 229.08 1.4L229.08 1.4Q227.43 2.75 227.43 5.45L227.43 5.45Q227.43 7.85 229.63 9.3 231.83 10.75 235.33 10.75L235.33 10.75Q238.93 10.75 241.33 9.43 243.73 8.1 243.73 5.7L243.73 5.7Q243.73 3.1 242.78 1.88 241.83 0.65 238.98 0.4L238.98 0.4 229.63-0.45Q228.08-0.65 227.06-2.08 226.03-3.5 226.03-4.85L226.03-4.85 229.38-10.4Q227.08-11.7 225.91-13.85 224.73-16 224.73-18.25L224.73-18.25Q224.73-22.5 227.88-25.1 231.03-27.7 235.13-27.7L235.13-27.7Q239.08-27.7 242.08-25.6L242.08-25.6Q242.33-32.45 247.18-32.7L247.18-32.7Q248.48-32.4 248.48-30.55L248.48-30.55Q248.48-29.55 248.28-28.35L248.28-28.35Q246.33-28.2 245.08-27.08 243.83-25.95 243.28-24.5L243.28-24.5Q245.78-22 245.78-18.25L245.78-18.25Q245.78-14.3 242.58-11.68 239.38-9.05 235.13-9.05L235.13-9.05Q232.88-9.05 231.08-9.65L231.08-9.65 229.38-5.2 241.83-3.95Q244.73-3.6 246.26-1.83 247.78-0.05 247.78 2.8L247.78 2.8Q247.78 7.8 244.18 10.48 240.58 13.15 234.43 13.15L234.43 13.15Q229.33 13.15 226.48 11.3 223.63 9.45 223.63 6.35L223.63 6.35Q223.63 4.25 224.98 2.63 226.33 1 228.33 0.55ZM229.23-18.25L229.23-18.25Q229.23-15.35 230.86-13.3 232.48-11.25 235.18-11.25L235.18-11.25Q237.83-11.25 239.53-13.28 241.23-15.3 241.23-18.25L241.23-18.25Q241.23-21.45 239.56-23.58 237.88-25.7 235.18-25.7L235.18-25.7Q232.63-25.7 230.93-23.55 229.23-21.4 229.23-18.25ZM271.58-14.1L271.58-14.1 255.88-14.1Q255.43-1.35 263.53-1.35L263.53-1.35Q266.98-1.35 270.58-4.4L270.58-4.4Q271.33-3.95 271.73-2.85L271.73-2.85Q268.28 1 262.98 1L262.98 1Q250.78 1 250.78-13.35L250.78-13.35Q250.78-20.15 254.38-23.93 257.98-27.7 262.78-27.7L262.78-27.7Q268.03-27.7 270.33-24.05 272.63-20.4 272.63-14.55L272.63-14.55Q272.13-14.15 271.58-14.1ZM262.68-25.7L262.68-25.7Q260.08-25.7 258.25-23 256.43-20.3 256.03-16.1L256.03-16.1 262.23-16.1Q265.93-16.1 267.53-16.55L267.53-16.55Q267.53-20.65 266.28-23.18 265.03-25.7 262.68-25.7ZM285.43-26.7L285.43-26.7 285.33-21.55Q286.58-23.85 288.8-25.78 291.03-27.7 293.03-27.7L293.03-27.7Q294.58-27.7 295.78-27.35L295.78-27.35Q296.18-26.7 296.18-25.65L296.18-25.65Q296.18-24 295.48-22.35L295.48-22.35Q293.68-22.85 292.03-22.85L292.03-22.85Q287.93-22.85 285.28-18.85L285.28-18.85 285.18-10.1 285.18-2.55 290.73-1.8Q290.93-1 290.73 0.2L290.73 0.2Q287.58 0.05 283.53 0.05L283.53 0.05Q280.48 0.05 276.28 0.15L276.28 0.15Q275.98-0.8 276.28-1.8L276.28-1.8 280.23-2.35Q280.43-5.1 280.43-8.7L280.43-8.7 280.43-22.4Q280.43-23.4 280.28-24.25L280.28-24.25 276.33-24.75Q276.13-25.5 276.33-26.65L276.33-26.65Q279.78-26.9 284.93-27.7L284.93-27.7Q285.38-27.2 285.43-26.7Z" opacity="1" transform="matrix(1,0,0,1,0,0)" fill="#ffffff" class="wordmark-text-0" data-fill-palette-color="quaternary" id="text-0"></path></svg></g></svg></g></svg></g></svg></g><g transform="matrix(1,0,0,1,44.72163086691388,0)"><svg viewBox="0 0 123.71517949332936 52.8440861300465" height="52.8440861300465" width="123.71517949332936"><g><svg xmlns="http://www.w3.org/2000/svg" xmlns:xlink="http://www.w3.org/1999/xlink" version="1.1" x="0" y="0" viewBox="4.999999988932586 30.779 90.00200001106741 38.44373390508427" enable-background="new 0 0 100 100" xml:space="preserve" height="52.8440861300465" width="123.71517949332936" class="icon-icon-0" data-fill-palette-color="quaternary" id="icon-0"><g fill="#ffffff" data-fill-palette-color="quaternary"><path fill="none" d="M53.288 54.867L54.219 52.931C52.958 54.153 51.446 54.867 49.82 54.867S46.682 54.153 45.421 52.931L46.351 54.867C46.039 54.354 44.867 54.216 43.493 54.25 43.712 55.566 45.261 56.672 47.398 57.156L49.819 61.091 52.24 57.156C54.377 56.672 55.928 55.566 56.146 54.25 54.771 54.216 53.6 54.354 53.288 54.867"></path><path fill="#ffffff" d="M22.748 52.015C22.715 53.54 20.456 54.771 17.671 54.771 14.888 54.771 12.628 53.541 12.595 52.015A8.364 8.364 0 0 0 5 60.344C5 64.963 8.745 64.951 13.364 64.951H21.978C26.597 64.951 30.342 64.963 30.342 60.344 30.342 55.984 27.006 52.404 22.748 52.015" data-fill-palette-color="quaternary"></path><path fill="#ffffff" d="M17.671 51.751C14.846 51.751 12.512 48.689 12.137 44.713H11.368C11.795 49.241 14.454 52.73 17.671 52.73S23.548 49.241 23.975 44.713H23.207C22.832 48.689 20.497 51.751 17.671 51.751" data-fill-palette-color="quaternary"></path><path fill="#ffffff" d="M11.068 43.771H24.275A0.931 0.931 0 1 0 24.275 41.908H24.022A6.35 6.35 0 0 0 20.539 36.244L20.013 39.227A0.486 0.486 0 1 1 19.054 39.058L19.655 35.649C19.429 35.289 19.03 35.049 18.573 35.049H16.771C16.314 35.049 15.914 35.289 15.688 35.649L16.289 39.058A0.486 0.486 0 1 1 15.33 39.227L14.804 36.244A6.35 6.35 0 0 0 11.321 41.908H11.068A0.932 0.932 0 1 0 11.068 43.771" data-fill-palette-color="quaternary"></path><path fill="#ffffff" d="M58.357 54.412C60.153 54.613 61.729 54.923 61.729 54.923 58.145 52.953 58.238 45.881 58.238 45.881 58.282 44.916 58.273 44.029 58.228 43.202H56.81L56.806 43.486C56.795 44.043 56.784 44.459 56.77 44.552 56.635 46.365 56.173 48.034 55.474 49.435 54.203 51.984 52.144 53.64 49.82 53.641 47.495 53.64 45.437 51.984 44.165 49.435 43.467 48.034 43.005 46.365 42.87 44.552A18 18 0 0 1 42.834 43.486L42.83 43.202H41.41A27 27 0 0 0 41.4 45.881S41.492 52.953 37.909 54.923C37.909 54.923 39.485 54.613 41.281 54.412 37.039 55.749 33.962 59.711 33.962 64.394 33.962 70.175 38.648 69.153 44.429 69.153H55.209C60.99 69.153 65.677 70.175 65.677 64.394 65.676 59.711 62.599 55.749 58.357 54.412M52.24 57.156L49.819 61.091 47.398 57.156C45.261 56.672 43.711 55.566 43.493 54.25 44.867 54.216 46.039 54.354 46.351 54.867L45.421 52.931C46.682 54.153 48.193 54.867 49.82 54.867 51.446 54.867 52.959 54.153 54.219 52.931L53.288 54.867C53.6 54.354 54.771 54.216 56.146 54.25 55.928 55.566 54.377 56.672 52.24 57.156" data-fill-palette-color="quaternary"></path><path fill="#ffffff" d="M41.33 41.992H58.311A1.198 1.198 0 0 0 58.311 39.597H57.985A8.16 8.16 0 0 0 53.506 32.315L53.268 33.669 52.83 36.15A0.625 0.625 0 0 1 52.106 36.657C52.089 36.655 52.076 36.649 52.061 36.644A0.62 0.62 0 0 1 51.598 35.932L51.606 35.889 52.079 33.206 52.371 31.551A1.64 1.64 0 0 0 50.98 30.779H48.663C48.076 30.779 47.562 31.089 47.271 31.551L47.563 33.206 48.036 35.889 48.044 35.932A0.623 0.623 0 0 1 47.582 36.644C47.567 36.648 47.553 36.654 47.537 36.657A0.623 0.623 0 0 1 46.813 36.15L46.375 33.669 46.136 32.315A8.16 8.16 0 0 0 41.658 39.597H41.33A1.198 1.198 0 0 0 41.33 41.992" data-fill-palette-color="quaternary"></path><path fill="#ffffff" d="M82.171 51.751C79.346 51.751 77.011 48.689 76.636 44.713H75.867C76.295 49.241 78.953 52.73 82.171 52.73S88.047 49.241 88.475 44.713H87.706C87.331 48.689 84.996 51.751 82.171 51.751" data-fill-palette-color="quaternary"></path><path fill="#ffffff" d="M87.711 51.899L87.667 51.894A10 10 0 0 0 87.312 51.853C87.312 51.866 87.308 51.877 87.307 51.889 87.306 51.924 87.3 51.958 87.295 51.994A1.7 1.7 0 0 1 87.121 52.569C86.499 54.135 84.486 57.104 83.301 58.79L83.057 55.288C83.403 55.11 83.701 54.816 83.892 54.476 84.029 54.23 84.113 53.962 84.113 53.69 84.113 53.69 83.228 54.082 82.326 54.082 82.274 54.082 82.223 54.081 82.172 54.078L82.018 54.082C81.115 54.082 80.231 53.69 80.231 53.69 80.231 53.962 80.315 54.23 80.452 54.476 80.643 54.816 80.941 55.11 81.287 55.288L81.043 58.79C79.857 57.104 77.844 54.136 77.223 52.569A1.7 1.7 0 0 1 77.049 51.994C77.044 51.958 77.038 51.924 77.036 51.889 77.036 51.877 77.033 51.866 77.032 51.853 76.912 51.865 76.795 51.878 76.677 51.894L76.633 51.899A8.47 8.47 0 0 0 69.344 60.286C69.344 64.962 73.136 64.951 77.813 64.951H86.533C91.21 64.951 95.002 64.962 95.002 60.286A8.474 8.474 0 0 0 87.711 51.899" data-fill-palette-color="quaternary"></path><path fill="#ffffff" d="M75.567 43.771H88.773A0.931 0.931 0 1 0 88.773 41.909H88.519A6.35 6.35 0 0 0 85.036 36.244L84.848 37.317 84.51 39.227A0.486 0.486 0 1 1 83.551 39.058L83.922 36.953 84.151 35.65A1.28 1.28 0 0 0 83.069 35.049H81.27C80.813 35.049 80.415 35.289 80.188 35.65L80.418 36.953 80.789 39.058A0.487 0.487 0 1 1 79.829 39.227L79.492 37.317 79.303 36.244A6.35 6.35 0 0 0 75.821 41.909H75.567A0.931 0.931 0 1 0 75.567 43.771" data-fill-palette-color="quaternary"></path></g></svg></g></svg></g><g></g></svg></g></svg></g></svg></g></svg></g><defs></defs></svg><rect width="342.85155851775386" height="342.85155851775386" fill="none" stroke="none" visibility="hidden"></rect></g></svg></g></svg>